<?xml version="1.0" encoding="utf-8" ?><svg xmlns="http://www.w3.org/2000/svg" xmlns:xlink="http://www.w3.org/1999/xlink" width="1000" height="332" viewBox="0 0 1000 332"><path fill="#E2000D" d="M606.751 20.7193C624.034 18.8252 650.911 28.8268 665.555 38.0267C667.085 38.9877 669.059 41.5294 670.2 42.985C666.024 41.953 659.656 41.4155 655.254 40.9915C631.497 38.5647 607.501 40.101 584.248 45.5374C552.158 52.9644 528.054 62.2366 497.632 74.0278C423.477 102.769 364.107 137.798 300.878 185.624C284.429 197.852 268.384 210.614 252.768 223.889C242.28 232.892 213.83 256.647 207.52 266.76C213.459 275.474 226.221 285.836 234.475 293.311L257.672 314.727C260.272 317.084 269.153 323.881 269.665 326.876C268.218 327.736 231.556 327.28 227.62 326.997C223.846 324.368 217.602 319.015 213.796 315.928C202.669 306.861 191.631 297.685 180.684 288.403C175.464 283.973 164.837 274.532 159.464 271.411C160.131 288.531 159.487 309.618 159.605 327.181C146.519 327.22 133.434 327.192 120.349 327.096C119.87 322.483 120.041 314.413 120.033 309.543L120.011 279.634C119.993 257.24 119.176 228.825 120.247 207.05C124.164 206.873 131.046 207.385 135.283 207.455C143.214 207.53 151.147 207.43 159.074 207.157C160.217 219.508 159.34 244.868 159.252 258.06C167.699 254.284 190.393 232.79 198.743 225.561C211.949 214.113 225.358 202.901 238.962 191.929C255.78 178.824 272.886 166.092 290.266 153.742C308.011 141.034 325.369 128.766 344.047 117.419C401.558 82.8733 463.13 55.5867 527.354 36.1835C552.627 28.733 580.47 21.9485 606.751 20.7193Z"/><path fill="#1D1D1D" d="M389.234 235.231C417.708 236.507 447.256 233.743 475.789 235.656C487.312 236.429 497.92 244.889 501.523 255.698C507.924 274.901 492.183 286.552 476.036 291.843C478.67 297.249 480.715 303.407 482.887 309.057C485.177 315.017 487.807 321.176 489.605 327.273C484.972 327.608 478.028 327.045 473.037 326.983C469.154 326.934 451.569 327.933 449.47 325.836C445.676 322.044 444.698 300.607 441.997 297.681C440.459 296.987 441.046 296.987 439.557 297.418C437.315 299.387 435.092 311.246 433.834 315.416C433.143 318.132 430.739 323.874 428.886 326.095C427.546 326.953 395.902 327.344 391.156 327.659C394.26 313.478 399.097 297.451 402.952 283.362C404.959 276.026 408.38 263.768 411.505 257.312C424.637 257.376 436.435 258.095 449.742 257.476C449.099 261.884 447.823 265.507 446.453 269.68C445.468 272.68 443.385 276.836 446.078 279.198C453.838 280.371 460.416 272.465 462.999 265.932C458.32 252.524 453.14 254.578 440.657 254.003C429.153 253.473 414.72 254.807 403.553 253.738C399.273 253.328 391.371 239.609 389.234 235.231Z"/><path fill="#1D1D1D" d="M296.767 235.222C306.322 235.798 371.593 234.242 374.15 236.1C377.285 243.396 384.965 317.205 384.593 327.119C372.992 327.157 359.14 327.502 347.718 326.945C347.158 322.925 348.151 318.149 346.774 314.699C343.771 313.159 330.354 313.693 326.467 314.017C321.789 315.869 322.804 322.487 319.734 325.678C317.735 327.757 282.993 327.292 276.733 327.373C278.183 324.275 282.656 318.444 284.799 315.132L304.656 284.593C309.571 276.944 314.523 268.209 320.633 261.4C325.649 255.811 332.652 258.86 335.405 255.813L335.114 254.591C333.237 253.279 315.868 254.699 311.11 254.256C305.256 250.604 298.881 241.922 296.767 235.222ZM336.966 292.987C340.539 293.439 343.462 293.224 347.025 292.812C347.169 288.732 348.669 274.905 346.953 272.786C344.609 275.124 336.318 288.824 335.698 291.741C336.1 292.785 335.794 292.435 336.966 292.987Z"/><path fill="#1D1D1D" d="M515.859 235.279C540.706 236.373 568.441 234.469 593.923 235.375C596.519 248.426 597.42 267.805 599.353 281.566C601.218 294.846 604.297 313.794 604.46 326.798C599.28 327.355 571.708 327.339 566.431 326.716C566.398 323.482 567.623 317.147 566.064 314.621C562.755 313.315 549.314 313.757 545.519 314.251C541.576 315.782 539.766 323.351 538.594 327.12C524.198 327.322 511.085 326.855 496.277 327.37C497.608 324.428 501.008 319.704 502.892 316.798L517.019 295.114C523.508 285.181 535.929 262.374 545.888 257.416C548.673 257.453 551.56 258.624 553.792 256.849C554.565 255.302 554.644 255.744 554.299 254.36C549.907 252.16 535.545 257.072 529.098 252.921C524.127 249.72 517.282 240.624 515.859 235.279ZM556.114 292.982C559.515 293.023 563.01 293.135 566.391 292.828C566.296 286.776 566.663 280.999 567.089 274.98C567.155 274.049 566.538 273.117 565.758 272.662C563.834 275.148 555.024 289.944 555.037 292.296C555.263 292.449 555.905 292.912 556.114 292.982Z"/><path fill="#1D1D1D" d="M703.504 235.293C728.293 235.212 756.724 234.483 781.221 235.416C782.097 239.113 782.077 243.352 782.523 247.129C785.702 274.092 787.337 299.988 788.113 327.131C779.501 327.133 761.05 327.603 753.464 326.666C753.412 322.495 753.218 318.326 752.883 314.168C747.68 313.012 735.557 312.87 730.646 314.867C727.572 319.697 726.9 321.264 725.626 326.85C711.085 327.499 697.069 326.199 682.257 327.74C683.382 325.438 684.666 323.63 686.131 321.542C698.054 304.55 708.899 286.765 720.259 269.409C722.721 265.647 727.674 258.613 731.999 257.748C734.907 257.166 738.904 259.379 741.532 255.386C735.856 249.128 711.155 265.911 703.504 235.293ZM742.447 293.306C746.402 293.399 749 293.325 752.959 292.605C753.127 289.33 754.145 275.661 753.205 273.644L752.869 273.312C749.688 275.601 741.832 288.925 741.511 292.436C741.83 292.77 742.06 293.071 742.447 293.306Z"/><path fill="#1D1D1D" d="M686.248 235.082C689.395 235.066 692.543 235.08 695.69 235.126C696.925 241.746 697.357 255.481 697.629 262.375C683.675 255.215 675.082 252.683 659.863 259.116C638.378 268.117 631.164 294.98 656.92 304.015C669.927 308.578 679.135 305.663 690.846 300.058C688.792 304.749 676.272 321.278 672.43 325.834C670.29 328.372 655.205 326.936 650.964 326.723C649.254 326.71 647.548 326.561 645.861 326.277C635.238 324.556 620.469 317.883 614.031 308.721C604.152 294.375 606.053 266.755 623.855 259.242C626.631 258.071 632.556 257.332 633.053 254.46C630.925 253.194 619.936 254.104 615.833 253.769L615.716 253.703C607.706 249.13 604.788 243.601 602.574 235.369C611.681 235.046 622.311 235.281 631.51 235.26L686.248 235.082Z"/><path fill="#1D1D1D" d="M167.379 119.32C188.39 117.312 203.364 133.561 182.927 147.848C176.646 152.238 171.014 154.246 163.562 155.75C160.102 156.448 147.362 155.632 147.63 160.805C148.89 161.589 155.375 161.87 157.441 162.235C160.386 162.742 163.273 163.549 166.054 164.643C204.29 179.926 134.282 214.703 122.548 190.578C118.485 182.223 129.136 172.237 131.974 166.077C131.589 163.634 127.239 162.377 124.523 160.195C126.26 151.271 137.101 158.469 143.72 151.443C148.429 146.445 157.714 137.585 164.521 136.965L165.054 137.434C164.999 141.724 155.864 147.807 154.927 152.183L155.506 152.874C160.727 153.076 182.98 145.308 183.151 138.613C183.176 137.418 182.698 136.266 181.833 135.441C176.088 129.891 150.131 133.065 143.236 137.07C142.622 137.426 138.588 142.393 137.623 143.427C134.382 144.43 125.114 147.331 121.633 147.574C121.041 147.615 120.689 146.724 120.361 146.143C120.212 141.271 121.851 138.177 124.673 134.26C132.809 122.969 154.125 120.925 167.379 119.32ZM153.919 184.178C160.363 181.57 163.579 180.617 167.622 174.866C162.141 168.764 151.903 166.003 144.066 165.331C139.742 169.01 130.556 177.081 135.428 183.209C139.235 187.997 149.185 186.104 153.919 184.178Z"/><path fill="#6B6A6A" d="M674.111 45.3421C678.318 46.0593 684.75 52.5179 687.691 55.7472C698.964 68.1268 700.465 78.4987 699.976 94.2771C699.205 119.174 688.385 142.707 677.061 164.442C674.961 168.473 671.104 175.751 667.909 178.85C665.318 181.362 653.921 180.025 649.784 179.804L631.243 179.949C633.041 176.963 638.199 170.967 640.583 167.983C644.46 163.076 648.151 158.026 651.65 152.842C668.424 128.185 686.958 94.4571 682.346 63.4629C681.384 56.9959 675 50.5654 674.111 45.3421Z"/><path fill="#1D1D1D" d="M199.332 154.19L199.65 154.177C201.769 154.114 203.461 154.713 205.001 156.147C208.445 164.455 185.715 177.583 188.797 184.183C196.783 186.6 216.779 157.11 221.927 156.439C228.604 158.821 220.916 169.175 218.505 172.467C213.01 179.971 208.815 186.125 205.817 195.042C210.131 191.558 220.993 178.285 225.683 178.979L226.13 179.885C226.151 181.69 225.349 182.669 224.4 184.186C216.782 192.681 209.051 200.732 202.216 209.896C200.316 212.444 192.661 223.173 189.566 222.449C188.25 221.283 187.928 219.513 187.419 217.804C189.659 206.135 201.997 192.81 202.934 186.921L202.519 186.36C197.387 187.169 181.04 209.585 181.223 179.635C181.269 172.106 193.107 158.903 199.332 154.19Z"/></svg>